<svg xmlns="http://www.w3.org/2000/svg" fill='#E94550' version="1.0" viewBox="0 0 352 360">
  <path d="M163.2 1c-25.2 3.5-47.4 19.4-58.3 41.7-3.4 7.2-7.2 21-6.7 24.9l.3 2.6 11.4.1 11.3.1 1.9-7.2c5.9-23.3 25.1-38.4 48.9-38.4 23.8 0 44.1 16.1 49.1 39 .7 3.1 1.7 6 2.2 6.4.6.3 2.9.5 5.1.3 2.3-.2 7.1-.4 10.9-.4 6.7-.1 6.7-.1 6.7-2.9 0-4.8-3.7-17.6-7-24.4-1.7-3.5-5.4-9.4-8.2-13.1-15-20.1-43.1-32-67.6-28.7zM169.7 98.4c-7.3 2.7-11 8-11 16.1 0 5.9 2.1 10.5 6 13.3 11.8 8.4 28.3.8 28.3-13 0-7.7-4.6-14.2-11.9-16.7-4.3-1.4-6.7-1.3-11.4.3zM161.5 146.2c-.3.7-.4 24.2-.3 52.3l.3 51 14.3.3 14.2.3V145h-14c-10.3 0-14.2.3-14.5 1.2zM98.3 287c1.5 14.2 9.6 30.7 20.6 41.8 14.7 15 32.1 22.1 53.7 22.2 33.5 0 62.2-22.1 71.3-55 1.2-4.1 2.1-8.9 2.1-10.7 0-3-.3-3.2-4.2-3.8-2.4-.3-7.6-.5-11.7-.3l-7.3.3-1.9 7.3C215 312.2 196 327 172 327s-43-14.8-48.9-38.2l-1.9-7.3-11.7-.3-11.8-.3.6 6.1z"/>
</svg>
